<?xml version="1.0" encoding="UTF-8" standalone="no"?>
<!-- Created with Inkscape (http://www.inkscape.org/) -->

<svg
   width="22"
   height="22"
   viewBox="0 0 22 22"
   version="1.1"
   id="svg1"
   inkscape:version="1.4.2 (unknown)"
   sodipodi:docname="shutdown.svg"
   xmlns:inkscape="http://www.inkscape.org/namespaces/inkscape"
   xmlns:sodipodi="http://sodipodi.sourceforge.net/DTD/sodipodi-0.dtd"
   xmlns="http://www.w3.org/2000/svg"
   xmlns:svg="http://www.w3.org/2000/svg">
  <sodipodi:namedview
     id="namedview1"
     pagecolor="#ffffff"
     bordercolor="#999999"
     borderopacity="1"
     inkscape:showpageshadow="2"
     inkscape:pageopacity="0"
     inkscape:pagecheckerboard="0"
     inkscape:deskcolor="#d1d1d1"
     inkscape:document-units="px"
     showgrid="true"
     inkscape:zoom="10.889787"
     inkscape:cx="11.662303"
     inkscape:cy="10.973585"
     inkscape:window-width="1920"
     inkscape:window-height="998"
     inkscape:window-x="0"
     inkscape:window-y="0"
     inkscape:window-maximized="1"
     inkscape:current-layer="layer1">
    <inkscape:grid
       id="grid1"
       units="px"
       originx="13"
       originy="-48"
       spacingx="1"
       spacingy="1"
       empcolor="#0099e5"
       empopacity="0.30196078"
       color="#0099e5"
       opacity="0.14901961"
       empspacing="5"
       dotted="false"
       gridanglex="30"
       gridanglez="30"
       visible="true" />
  </sodipodi:namedview>
  <defs
     id="defs1" />
  <g
     inkscape:label="Layer 1"
     inkscape:groupmode="layer"
     id="layer1"
     transform="translate(13,-48)">
    <rect
       height="22"
       ry="11"
       width="22"
       x="-13"
       y="48"
       id="rect4310-6-6"
       style="fill:#6a7893;fill-opacity:0.30000001;stroke-width:1.4"
       rx="11" />
    <circle
       cx="-2"
       cy="59"
       r="9"
       id="circle2-0-5"
       style="fill:#e25563;fill-opacity:1" />
    <path
       d="m -7.6609573,53.350361 c -3.1442317,3.146231 -3.1185077,8.281647 0.07713,11.395319 2.976632,2.900255 7.7733553,3.0188 10.8799713,0.258412 2.72205,-2.418664 3.444453,-6.272121 1.91306,-9.454097 C 5.025407,55.1681 4.54425,55.036983 4.182154,55.256942 c -0.324649,0.197229 -0.434376,0.607106 -0.271171,0.95028 1.261773,2.653061 0.614354,5.869031 -1.722657,7.831402 -2.370471,1.990488 -5.8875023,2.023964 -8.2934583,0.07654 -3.0685,-2.483656 -3.244324,-7.017273 -0.527458,-9.735845 1.980002,-1.98126 4.9532433,-2.470202 7.4331773,-1.286936 0.340914,0.162657 0.748309,0.05072 0.944312,-0.272303 l 0.002,-0.0022 c 0.218938,-0.361226 0.08991,-0.841704 -0.29043,-1.02523 -3.037788,-1.465433 -6.6886523,-0.872303 -9.1170513,1.557621 z"
       id="path1-0-4-6"
       style="fill:#ffffff;fill-opacity:1;stroke-width:0.290958" />
    <path
       d="m -5.5352383,59.543767 c -0.01276,-0.07685 -0.02318,-0.154417 -0.03135,-0.2327 0.0044,0.04655 0.01003,0.0922 0.01432,0.138737 -0.03602,-0.353419 -0.02711,-0.710393 0.02502,-1.061672 -0.0066,0.04621 -0.01395,0.09166 -0.02113,0.137868 0.05441,-0.353546 0.154179,-0.697486 0.297602,-1.02568 -0.0189,0.04363 -0.03779,0.08723 -0.05648,0.12929 0.146626,-0.332755 0.336043,-0.645914 0.56418,-0.931077 -0.03031,0.03792 -0.06133,0.07661 -0.09166,0.114504 0.230472,-0.285868 0.496458,-0.539195 0.793196,-0.755424 -0.03943,0.02836 -0.07954,0.0576 -0.118817,0.08604 0.299081,-0.21695 0.624961,-0.39305 0.969807,-0.523845 -0.04453,0.01676 -0.089,0.03338 -0.131856,0.05016 0.3292153,-0.123449 0.6735663,-0.203999 1.0238233,-0.241894 -0.04652,0.0057 -0.09226,0.0093 -0.138692,0.0144 0.350973,-0.03556 0.704708,-0.02698 1.053488,0.02553 -0.04617,-0.0077 -0.09157,-0.01377 -0.137813,-0.02117 0.347985,0.05328 0.687122,0.151199 1.011321,0.290499 -0.04352,-0.01884 -0.08715,-0.03766 -0.129193,-0.05648 0.337911,0.14736 0.65616,0.339091 0.943311,0.569489 -0.03796,-0.03026 -0.07651,-0.06142 -0.114406,-0.09169 0.2856,0.230368 0.538635,0.496277 0.754578,0.792982 -0.02844,-0.03932 -0.05751,-0.07944 -0.08601,-0.118821 0.216654,0.299051 0.392468,0.624938 0.522173,0.970579 -0.01674,-0.04445 -0.03331,-0.08895 -0.04997,-0.131872 0.123156,0.329255 0.203441,0.673693 0.240282,1.024816 -0.0044,-0.04653 -0.0097,-0.09222 -0.01427,-0.138739 0.03534,0.351088 0.02646,0.704962 -0.0263,1.05391 0.0092,-0.04617 0.01393,-0.09168 0.02116,-0.137873 -0.05352,0.348158 -0.151617,0.687502 -0.291838,1.011128 0.01885,-0.0436 0.03763,-0.0872 0.05651,-0.129286 -0.147542,0.338155 -0.340166,0.655864 -0.570685,0.943297 0.03027,-0.03791 0.06146,-0.07654 0.09168,-0.114518 -0.230462,0.285876 -0.497205,0.538407 -0.79319,0.755428 0.03935,-0.02836 0.07957,-0.05761 0.118826,-0.08603 -0.295119,0.213173 -0.616334,0.38785 -0.9573,0.51796 0.04446,-0.01667 0.08902,-0.03332 0.131863,-0.05017 -0.33392,0.126423 -0.68374,0.209162 -1.038621,0.24694 0.04652,-0.0051 0.09224,-0.0092 0.138682,-0.01442 -0.352522,0.0356 -0.706256,0.02685 -1.056575,-0.02564 0.0462,0.0079 0.09154,0.01378 0.137804,0.02115 -0.08931,-0.01459 -0.178518,-0.0307 -0.266146,-0.04981 0.07505,0.307203 0.150068,0.614414 0.224328,0.920831 0.0032,-0.0045 0.0093,-0.0079 0.01267,-0.01198 0.101236,-0.09651 0.166024,-0.242595 0.170271,-0.382425 0.0033,-0.134453 -0.05207,-0.295829 -0.150998,-0.390234 -0.101989,-0.09757 -0.236072,-0.171956 -0.38218,-0.170089 -0.1453475,0.0033 -0.2825163,0.04882 -0.3901783,0.151339 -0.0032,0.0043 -0.0094,0.0081 -0.01268,0.01206 -0.139325,0.132689 -0.199227,0.334573 -0.155212,0.521956 0.04271,0.181181 0.192778,0.358011 0.3803038,0.399667 0.8109135,0.176621 1.6730645,0.158103 2.4655285,-0.103329 0.720008,-0.237656 1.384417,-0.632068 1.915041,-1.17816 0.530603,-0.54456 0.929813,-1.212904 1.146627,-1.942889 0.223508,-0.751475 0.249917,-1.562615 0.08441,-2.328167 C 2.398572,57.249772 2.042662,56.553822 1.551055,55.969002 1.307859,55.680145 1.02354,55.428946 0.720011,55.205095 0.413426,54.979613 0.077672,54.807569 -0.273423,54.662205 c -0.360285,-0.148674 -0.732967,-0.23426 -1.117229,-0.289199 -0.39579,-0.05753 -0.788637,-0.04696 -1.183846,-0.0041 -0.341742,0.03736 -0.6783843,0.118065 -0.9997853,0.238611 -0.356486,0.132829 -0.695888,0.293142 -1.011166,0.508921 -0.312151,0.214318 -0.604047,0.453089 -0.857611,0.735314 -0.252774,0.281474 -0.47991,0.588312 -0.659018,0.921822 -0.371227,0.692994 -0.573156,1.476685 -0.564217,2.264725 0.0022,0.252864 0.02747,0.507843 0.0685,0.75701 0.02218,0.134291 0.137672,0.274713 0.25036,0.342392 0.112679,0.06765 0.278815,0.09953 0.407236,0.06317 0.137762,-0.03921 0.27273,-0.120954 0.342425,-0.250698 0.06975,-0.129739 0.08613,-0.260002 0.06266,-0.40669 z"
       id="path2-2-8-0"
       style="fill:#ffffff;fill-opacity:1;stroke-width:0.0109281" />
    <path
       d="m -8.3860263,65.81579 6.2742553,-5.77594 c 0.15471,-0.142421 0.16751,-0.560157 -0.08174,-0.830896 -0.249231,-0.270738 -0.715615,-0.24735 -0.8703255,-0.104928 l -6.2252288,5.73082 c -0.15471,0.142428 -0.167488,0.560131 0.08176,0.830868 0.249239,0.270747 0.666572,0.292518 0.82128,0.150081 z"
       id="path2653-4-7-6"
       style="fill:#ffffff;fill-opacity:1;stroke-width:0.251967"
       sodipodi:nodetypes="sssssss" />
  </g>
</svg>
