<?xml version="1.0" encoding="UTF-8" standalone="no"?>
<!-- Created with Inkscape (http://www.inkscape.org/) -->

<svg
   width="22"
   height="22"
   viewBox="0 0 22.000001 22"
   version="1.1"
   id="svg1"
   inkscape:version="1.4.2 (unknown)"
   sodipodi:docname="suspend.svg"
   xmlns:inkscape="http://www.inkscape.org/namespaces/inkscape"
   xmlns:sodipodi="http://sodipodi.sourceforge.net/DTD/sodipodi-0.dtd"
   xmlns="http://www.w3.org/2000/svg"
   xmlns:svg="http://www.w3.org/2000/svg">
  <sodipodi:namedview
     id="namedview1"
     pagecolor="#ffffff"
     bordercolor="#999999"
     borderopacity="1"
     inkscape:showpageshadow="2"
     inkscape:pageopacity="0"
     inkscape:pagecheckerboard="0"
     inkscape:deskcolor="#d1d1d1"
     inkscape:document-units="px"
     showgrid="true"
     inkscape:zoom="10.889787"
     inkscape:cx="11.662303"
     inkscape:cy="10.789926"
     inkscape:window-width="1920"
     inkscape:window-height="998"
     inkscape:window-x="0"
     inkscape:window-y="0"
     inkscape:window-maximized="1"
     inkscape:current-layer="layer1">
    <inkscape:grid
       id="grid1"
       units="px"
       originx="13"
       originy="-85"
       spacingx="1"
       spacingy="1"
       empcolor="#0099e5"
       empopacity="0.30196078"
       color="#0099e5"
       opacity="0.14901961"
       empspacing="5"
       dotted="false"
       gridanglex="30"
       gridanglez="30"
       visible="true" />
  </sodipodi:namedview>
  <defs
     id="defs1">
    <linearGradient
       id="linearGradient1005-3-3-7"
       x1="3.1682994"
       x2="3.2801216"
       y1="5.1716504"
       y2="-1.1056422"
       gradientTransform="matrix(2.6456562,0,0,2.6456562,-7.4947193,90.617577)"
       gradientUnits="userSpaceOnUse">
      <stop
         stop-color="#fa8200"
         offset="0"
         id="stop2-5" />
      <stop
         stop-color="#ff9600"
         offset=".36953"
         id="stop4-3" />
      <stop
         stop-color="#ffb400"
         offset="1"
         id="stop6-5"
         style="stop-color:#e5a400;stop-opacity:1;" />
    </linearGradient>
  </defs>
  <g
     inkscape:label="Layer 1"
     inkscape:groupmode="layer"
     id="layer1"
     transform="translate(13,-85)">
    <rect
       height="22"
       ry="10.980392"
       width="22"
       x="-13"
       y="85"
       id="rect4310-6-6"
       style="fill:#6a7893;fill-opacity:0.30000001;stroke-width:1.4"
       rx="10.980392" />
    <path
       d="m 7.0001303,96.000057 c 0,1.078928 -0.189911,2.113412 -0.538174,3.071979 -0.242095,0.66636 -0.560582,1.296344 -0.945577,1.879034 -0.161255,0.24501 -0.33465,0.48163 -0.518695,0.709 -0.589202,0.72771 -1.2894325,1.36143 -2.0755427,1.87575 -0.289474,0.18955 -0.5903441,0.36294 -0.9018291,0.51831 C 0.8107084,104.6595 -0.5548051,105 -2.0000274,105 c -1.4452245,0 -2.8106234,-0.34053 -4.0203429,-0.9459 -0.311518,-0.1554 -0.6127515,-0.32878 -0.9022267,-0.51831 -0.7960519,-0.52129 -1.5046379,-1.16494 -2.0986691,-1.90467 -0.1843891,-0.22922 -0.3574166,-0.468 -0.5186971,-0.71521 -0.3746967,-0.57306 -0.6850808,-1.191346 -0.9223868,-1.844793 -0.34821,-0.958444 -0.53778,-1.99254 -0.53778,-3.071072 0,-4.970746 4.0292982,-9.000045 9.0000465,-9.000045 2.4950666,0 4.7529326,1.015353 6.3830878,2.65517 0.469827,0.472379 0.887521,0.996995 1.243055,1.564165 0.33612,0.534118 0.617126,1.106436 0.835714,1.708506 0.3483,0.958773 0.538196,1.993219 0.538196,3.071978 z"
       stroke-width="0.0820321"
       id="path14-1"
       style="fill:#ffcb2f;fill-opacity:1" />
    <path
       d="m -1.0314913,98.069698 c -0.644749,0 -1.248578,-0.17574 -1.768076,-0.481672 h -2.5006818 c -0.063135,0 -0.1134401,-0.05168 -0.1134401,-0.113705 0,-0.06324 0.051626,-0.113688 0.1134401,-0.113688 h 2.1601468 c -0.8437655,-0.639876 -1.3889309,-1.65352 -1.3889309,-2.792642 0,-0.83679 0.299523,-1.646505 0.8425259,-2.280568 0.359203,-0.418314 0.809738,-0.744195 1.310627,-0.953929 -2.3976942,0.192125 -4.2909704,2.209092 -4.2909704,4.659458 0,2.5771 2.0933569,4.673758 4.6664804,4.673758 1.165553,0 2.23269,-0.43004 3.050544,-1.140265 h -3.96212 c -0.06316,0 -0.113533,-0.05164 -0.113533,-0.113705 0,-0.06328 0.05157,-0.1136 0.113533,-0.1136 h 4.206834 c 0.846009,-0.846071 1.371457,-2.015719 1.371457,-3.306002 0,-0.471097 -0.0679,-0.928178 -0.202406,-1.367678 -0.02938,1.904393 -1.58673,3.444304 -3.49523,3.444304 z"
       id="path4-7-1-6"
       style="color:#d6dbf1;fill:#ffffff;fill-opacity:1;fill-rule:nonzero;stroke:none;stroke-width:0.0241995;stroke-opacity:1"
       class="ColorScheme-Text" />
    <path
       d="m -7.6611096,90.350485 c -3.1442174,3.146214 -3.1184944,8.281588 0.077223,11.395235 2.9766081,2.90023 7.7732983,3.01878 10.8798953,0.2584 2.7220036,-2.418635 3.4444076,-6.27206 1.9130276,-9.454017 -0.1838,-0.381891 -0.664962,-0.513003 -1.027058,-0.29305 -0.3246416,0.197227 -0.4343636,0.607106 -0.2711566,0.950274 1.2617646,2.653051 0.6143386,5.868995 -1.722653,7.831343 -2.37046,1.99047 -5.887466,2.02395 -8.2933934,0.0766 -3.0684804,-2.483633 -3.244302,-7.017204 -0.5274603,-9.735756 1.9799777,-1.981247 4.9532087,-2.470186 7.4331147,-1.286932 0.34092,0.162661 0.748306,0.05073 0.944307,-0.272298 l 0.002,-0.0028 c 0.218772,-0.360799 0.089786,-0.841277 -0.290584,-1.0248 -3.037705,-1.465408 -6.6885506,-0.872284 -9.1169301,1.557623 z"
       id="path1-0-9-8-0-2"
       style="fill:#ffffff;fill-opacity:1;stroke-width:0.290957" />
  </g>
</svg>
