<?xml version="1.0" encoding="UTF-8" standalone="no"?>
<!-- Created with Inkscape (http://www.inkscape.org/) -->

<svg
   width="22"
   height="22"
   viewBox="0 0 22 22"
   version="1.1"
   id="svg1"
   inkscape:version="1.4.2 (unknown)"
   sodipodi:docname="switch-user.svg"
   xmlns:inkscape="http://www.inkscape.org/namespaces/inkscape"
   xmlns:sodipodi="http://sodipodi.sourceforge.net/DTD/sodipodi-0.dtd"
   xmlns="http://www.w3.org/2000/svg"
   xmlns:svg="http://www.w3.org/2000/svg">
  <sodipodi:namedview
     id="namedview1"
     pagecolor="#ffffff"
     bordercolor="#999999"
     borderopacity="1"
     inkscape:showpageshadow="2"
     inkscape:pageopacity="0"
     inkscape:pagecheckerboard="0"
     inkscape:deskcolor="#d1d1d1"
     inkscape:document-units="px"
     showgrid="true"
     inkscape:zoom="10.889787"
     inkscape:cx="11.754133"
     inkscape:cy="11.340901"
     inkscape:window-width="1920"
     inkscape:window-height="998"
     inkscape:window-x="0"
     inkscape:window-y="0"
     inkscape:window-maximized="1"
     inkscape:current-layer="layer1">
    <inkscape:grid
       id="grid1"
       units="px"
       originx="13"
       originy="-77"
       spacingx="1"
       spacingy="1"
       empcolor="#0099e5"
       empopacity="0.30196078"
       color="#0099e5"
       opacity="0.14901961"
       empspacing="5"
       dotted="false"
       gridanglex="30"
       gridanglez="30"
       visible="true" />
  </sodipodi:namedview>
  <defs
     id="defs1" />
  <g
     inkscape:label="Layer 1"
     inkscape:groupmode="layer"
     id="layer1"
     transform="translate(13,-77)">
    <rect
       height="22"
       ry="11"
       width="22"
       x="-13"
       y="77"
       id="rect4310"
       style="fill:#6a7893;fill-opacity:0.31;stroke-width:1.4"
       rx="11" />
    <circle
       cx="-2"
       cy="88"
       r="9"
       id="circle211-2"
       style="fill:#1ba97f;fill-opacity:1" />
    <path
       d="m -2.910771,88.294548 a 0.30769204,0.29413123 0 0 1 0.295381,0.294132 v 1.176536 H 1.692305 C 1.862757,89.765216 2,89.8964 2,90.059335 v 1.176537 c 0,0.162347 -0.137243,0.294117 -0.307695,0.294117 H -2.61539 v 1.176536 a 0.30769204,0.29413123 0 0 1 -0.4959965,0.231766 L -5.880615,90.879384 a 0.30769204,0.29413123 0 0 1 0,-0.464737 l 2.7692285,-2.058319 a 0.30953829,0.29589602 0 0 1 0.2006155,-0.0617 z m 1.821532,-5.294358 a 0.30769204,0.29413123 0 0 0 -0.295382,0.294131 v 1.176526 H -5.6923086 C -5.8627691,84.470847 -6,84.602029 -6,84.764978 v 1.176525 c 0,0.162949 0.1372309,0.294131 0.3076914,0.294131 h 4.3076876 v 1.17653 a 0.30769204,0.29413123 0 0 0 0.496005,0.231777 l 2.769225,-2.058925 a 0.30769204,0.29413123 0 0 0 0,-0.46414 l -2.769225,-2.058919 a 0.30953829,0.29589602 0 0 0 -0.200623,-0.06177 z"
       stroke-linecap="round"
       stroke-linejoin="round"
       stroke-width="1.99999"
       id="path1"
       style="fill:#ffffff;fill-opacity:1" />
    <path
       d="m -7.6608676,82.349969 c -3.1443444,3.146339 -3.1186194,8.281916 0.07708,11.395679 2.976732,2.900334 7.7736236,3.018897 10.8803176,0.25841 2.722112,-2.418731 3.444532,-6.272306 1.913099,-9.454375 -0.183802,-0.381915 -0.664985,-0.513042 -1.027095,-0.293075 -0.324664,0.197251 -0.434386,0.607128 -0.271172,0.950306 1.261823,2.653161 0.614368,5.869223 -1.722716,7.831659 -2.370545,1.990529 -5.8876886,2.024035 -8.2937076,0.07654 -3.068598,-2.483703 -3.244427,-7.017461 -0.527479,-9.736122 1.980052,-1.981316 4.9534006,-2.470277 7.4334166,-1.28697 0.340931,0.162656 0.748336,0.05074 0.944336,-0.272315 l 0.0018,-0.0018 c 0.218552,-0.361158 0.08947,-0.841645 -0.290835,-1.025187 -3.037814,-1.46548 -6.6887876,-0.872308 -9.1172556,1.557676 z"
       id="path1-0-9-2-6-2"
       style="fill:#ffffff;fill-opacity:1;stroke-width:0.290959" />
  </g>
</svg>
